<svg width="14" height="15" viewBox="0 0 14 15" fill="none" xmlns="http://www.w3.org/2000/svg">
<path d="M12.1801 5.04038L9.17252 1.08658C8.93652 0.776473 8.61646 0.602314 8.28278 0.602417C7.94909 0.60252 7.6291 0.776878 7.3932 1.08713C7.15731 1.39739 7.02482 1.81813 7.0249 2.25679C7.02498 2.69546 7.15761 3.11611 7.39362 3.42622L9.43923 6.11538H2.06446C1.7308 6.11538 1.41081 6.28962 1.17488 6.59978C0.938942 6.90993 0.806396 7.3306 0.806396 7.76922C0.806396 8.20785 0.938942 8.62851 1.17488 8.93867C1.41081 9.24883 1.7308 9.42307 2.06446 9.42307H9.43923L7.39362 12.1122C7.15761 12.4223 7.02498 12.843 7.0249 13.2817C7.02482 13.7203 7.15731 14.1411 7.3932 14.4513C7.6291 14.7616 7.94909 14.9359 8.28278 14.936C8.61646 14.9361 8.93652 14.762 9.17252 14.4519L12.1801 10.4981C12.7297 9.77365 13.0383 8.79231 13.0383 7.76922C13.0383 6.74614 12.7297 5.7648 12.1801 5.04038V5.04038Z" fill="#78372D"/>
</svg>
