<svg width="44" height="36" viewBox="0 0 44 36" fill="none" xmlns="http://www.w3.org/2000/svg">
<g clip-path="url(#clip0_2311_70)">
<path d="M1.83333 8.99993H42.1667C42.6529 8.99993 43.1192 8.8419 43.463 8.56059C43.8068 8.27929 44 7.89776 44 7.49994C44 7.10211 43.8068 6.72058 43.463 6.43928C43.1192 6.15797 42.6529 5.99994 42.1667 5.99994H1.83333C1.3471 5.99994 0.880788 6.15797 0.536971 6.43928C0.193154 6.72058 0 7.10211 0 7.49994C0 7.89776 0.193154 8.27929 0.536971 8.56059C0.880788 8.8419 1.3471 8.99993 1.83333 8.99993V8.99993Z" fill="#78372D"/>
<path d="M9.16683 13.5C8.6806 13.5 8.21428 13.658 7.87047 13.9393C7.52665 14.2206 7.3335 14.6022 7.3335 15C7.3335 15.3978 7.52665 15.7794 7.87047 16.0607C8.21428 16.342 8.6806 16.5 9.16683 16.5H34.8335C35.3197 16.5 35.786 16.342 36.1299 16.0607C36.4737 15.7794 36.6668 15.3978 36.6668 15C36.6668 14.6022 36.4737 14.2206 36.1299 13.9393C35.786 13.658 35.3197 13.5 34.8335 13.5H9.16683Z" fill="#78372D"/>
<path d="M34.8335 28.4999H9.16683C8.6806 28.4999 8.21428 28.658 7.87047 28.9393C7.52665 29.2206 7.3335 29.6021 7.3335 29.9999C7.3335 30.3978 7.52665 30.7793 7.87047 31.0606C8.21428 31.3419 8.6806 31.5 9.16683 31.5H34.8335C35.3197 31.5 35.786 31.3419 36.1299 31.0606C36.4737 30.7793 36.6668 30.3978 36.6668 29.9999C36.6668 29.6021 36.4737 29.2206 36.1299 28.9393C35.786 28.658 35.3197 28.4999 34.8335 28.4999Z" fill="#78372D"/>
<path d="M42.1667 21.0001H1.83333C1.3471 21.0001 0.880788 21.1581 0.536971 21.4394C0.193154 21.7207 0 22.1022 0 22.5001C0 22.8979 0.193154 23.2794 0.536971 23.5607C0.880788 23.842 1.3471 24.0001 1.83333 24.0001H42.1667C42.6529 24.0001 43.1192 23.842 43.463 23.5607C43.8068 23.2794 44 22.8979 44 22.5001C44 22.1022 43.8068 21.7207 43.463 21.4394C43.1192 21.1581 42.6529 21.0001 42.1667 21.0001Z" fill="#78372D"/>
</g>
<defs>
<clipPath id="clip0_2311_70">
<rect width="44" height="36" fill="white"/>
</clipPath>
</defs>
</svg>
