<svg width="37" height="40" viewBox="0 0 37 40" fill="none" xmlns="http://www.w3.org/2000/svg">
<g clip-path="url(#clip0_2311_64)">
<path d="M0 31.6667C0.00240025 33.8761 0.799473 35.9942 2.21638 37.5564C3.63328 39.1186 5.55433 39.9974 7.55814 40.0001H28.7209C30.7247 39.9974 32.6458 39.1186 34.0627 37.5564C35.4796 35.9942 36.2767 33.8761 36.2791 31.6667V16.6667H0V31.6667ZM25.6977 24.1667C26.1461 24.1667 26.5845 24.3134 26.9574 24.5881C27.3303 24.8628 27.6209 25.2532 27.7925 25.71C27.9641 26.1669 28.009 26.6695 27.9215 27.1545C27.8341 27.6394 27.6181 28.0849 27.301 28.4345C26.9839 28.7841 26.5799 29.0222 26.14 29.1187C25.7002 29.2152 25.2443 29.1657 24.83 28.9764C24.4156 28.7872 24.0615 28.4668 23.8124 28.0557C23.5632 27.6446 23.4302 27.1612 23.4302 26.6667C23.4302 26.0037 23.6691 25.3678 24.0943 24.899C24.5196 24.4301 25.0963 24.1667 25.6977 24.1667ZM18.1395 24.1667C18.588 24.1667 19.0264 24.3134 19.3993 24.5881C19.7721 24.8628 20.0628 25.2532 20.2344 25.71C20.406 26.1669 20.4509 26.6695 20.3634 27.1545C20.2759 27.6394 20.06 28.0849 19.7429 28.4345C19.4257 28.7841 19.0217 29.0222 18.5819 29.1187C18.142 29.2152 17.6861 29.1657 17.2718 28.9764C16.8575 28.7872 16.5034 28.4668 16.2542 28.0557C16.0051 27.6446 15.8721 27.1612 15.8721 26.6667C15.8721 26.0037 16.111 25.3678 16.5362 24.899C16.9614 24.4301 17.5382 24.1667 18.1395 24.1667ZM10.5814 24.1667C11.0299 24.1667 11.4682 24.3134 11.8411 24.5881C12.214 24.8628 12.5046 25.2532 12.6762 25.71C12.8479 26.1669 12.8928 26.6695 12.8053 27.1545C12.7178 27.6394 12.5018 28.0849 12.1847 28.4345C11.8676 28.7841 11.4636 29.0222 11.0238 29.1187C10.5839 29.2152 10.128 29.1657 9.71368 28.9764C9.29936 28.7872 8.94524 28.4668 8.69609 28.0557C8.44694 27.6446 8.31395 27.1612 8.31395 26.6667C8.31395 26.0037 8.55284 25.3678 8.97807 24.899C9.4033 24.4301 9.98003 24.1667 10.5814 24.1667V24.1667Z" fill="#78372D"/>
<path d="M28.7209 3.33333H27.2093V1.66667C27.2093 1.22464 27.05 0.800716 26.7666 0.488155C26.4831 0.175595 26.0986 0 25.6977 0C25.2968 0 24.9123 0.175595 24.6288 0.488155C24.3453 0.800716 24.186 1.22464 24.186 1.66667V3.33333H12.093V1.66667C12.093 1.22464 11.9338 0.800716 11.6503 0.488155C11.3668 0.175595 10.9823 0 10.5814 0C10.1805 0 9.796 0.175595 9.51251 0.488155C9.22903 0.800716 9.06977 1.22464 9.06977 1.66667V3.33333H7.55814C5.55433 3.33598 3.63328 4.2148 2.21638 5.77703C0.799473 7.33926 0.00240025 9.45734 0 11.6667L0 13.3333H36.2791V11.6667C36.2767 9.45734 35.4796 7.33926 34.0627 5.77703C32.6458 4.2148 30.7247 3.33598 28.7209 3.33333V3.33333Z" fill="#78372D"/>
</g>
<defs>
<clipPath id="clip0_2311_64">
<rect width="36.2791" height="40" fill="white"/>
</clipPath>
</defs>
</svg>
