<svg width="26" height="40" viewBox="0 0 26 40" fill="none" xmlns="http://www.w3.org/2000/svg">
<path d="M9.17863 33.3333C7.70992 33.332 6.30177 32.7929 5.26324 31.8342C4.2247 30.8756 3.64062 29.5757 3.63919 28.22C3.63919 27.778 3.44896 27.354 3.11035 27.0415C2.77174 26.7289 2.31249 26.5533 1.83363 26.5533C1.35477 26.5533 0.895519 26.7289 0.556912 27.0415C0.218304 27.354 0.0280762 27.778 0.0280762 28.22V28.3333C0.0280762 28.365 0.0280762 28.3933 0.0280762 28.425C0.0883336 30.6288 1.07866 32.7237 2.78798 34.2632C4.49731 35.8028 6.79044 36.6652 9.17863 36.6667H10.8614V38.3333C10.8614 38.7754 11.0516 39.1993 11.3902 39.5118C11.7289 39.8244 12.1881 40 12.667 40C13.1458 40 13.6051 39.8244 13.9437 39.5118C14.2823 39.1993 14.4725 38.7754 14.4725 38.3333V36.6667H16.1553C18.3268 36.6645 20.4267 35.9496 22.0797 34.6497C23.7327 33.3498 24.831 31.5496 25.1783 29.571C25.5256 27.5923 25.0993 25.5641 23.9755 23.8489C22.8518 22.1337 21.1039 20.8433 19.0442 20.2083L14.4725 18.8V6.66667H16.1553C17.624 6.66799 19.0322 7.20714 20.0707 8.16579C21.1092 9.12444 21.6933 10.4243 21.6947 11.78C21.6947 12.222 21.885 12.646 22.2236 12.9585C22.5622 13.2711 23.0214 13.4467 23.5003 13.4467C23.9792 13.4467 24.4384 13.2711 24.777 12.9585C25.1156 12.646 25.3059 12.222 25.3059 11.78V11.6667C25.3059 11.635 25.3059 11.6067 25.3059 11.575C25.2456 9.37122 24.2553 7.2763 22.5459 5.73676C20.8366 4.19722 18.5435 3.3348 16.1553 3.33333H14.4725V1.66667C14.4725 1.22464 14.2823 0.800716 13.9437 0.488155C13.6051 0.175595 13.1458 0 12.667 0C12.1881 0 11.7289 0.175595 11.3902 0.488155C11.0516 0.800716 10.8614 1.22464 10.8614 1.66667V3.33333H9.17863C7.00712 3.33547 4.90721 4.05039 3.25423 5.3503C1.60125 6.6502 0.502954 8.45037 0.155644 10.429C-0.191666 12.4077 0.234651 14.4359 1.3584 16.1511C2.48214 17.8663 4.23006 19.1567 6.28974 19.7917L10.8614 21.2V33.3333H9.17863ZM14.4725 22.3117L17.9031 23.3683C19.1512 23.7518 20.2107 24.5327 20.8921 25.5714C21.5735 26.61 21.8322 27.8386 21.622 29.0372C21.4117 30.2358 20.7463 31.3263 19.7447 32.1134C18.7431 32.9006 17.4707 33.333 16.1553 33.3333H14.4725V22.3117ZM7.43085 16.6317C6.18274 16.2482 5.12319 15.4673 4.44182 14.4286C3.76045 13.39 3.50172 12.1614 3.71195 10.9628C3.92218 9.76416 4.58764 8.6737 5.58924 7.88657C6.59084 7.09944 7.86321 6.66701 9.17863 6.66667H10.8614V17.6883L7.43085 16.6317Z" fill="#78372D"/>
</svg>
