<svg width="40" height="29" viewBox="0 0 40 29" fill="none" xmlns="http://www.w3.org/2000/svg">
<path d="M19.9998 20.634C23.6804 20.634 26.664 17.9894 26.664 14.7272C26.664 11.4649 23.6804 8.82031 19.9998 8.82031C16.3193 8.82031 13.3357 11.4649 13.3357 14.7272C13.3357 17.9894 16.3193 20.634 19.9998 20.634Z" fill="#78372D"/>
<path d="M38.778 10.916C36.194 7.18581 30.3161 0.927429 20 0.927429C9.68379 0.927429 3.80597 7.18581 1.22193 10.916C-0.40731 13.2518 -0.40731 16.2031 1.22193 18.5389C3.80597 22.2691 9.68379 28.5275 20 28.5275C30.3161 28.5275 36.194 22.2691 38.778 18.5389C40.4072 16.2031 40.4072 13.2518 38.778 10.916ZM20 23.5878C14.4792 23.5878 10.0037 19.6208 10.0037 14.7274C10.0037 9.83402 14.4792 5.86707 20 5.86707C25.5207 5.86707 29.9963 9.83402 29.9963 14.7274C29.9907 19.6188 25.5185 23.5829 20 23.5878Z" fill="#78372D"/>
</svg>
