<svg width="40" height="41" viewBox="0 0 40 41" fill="none" xmlns="http://www.w3.org/2000/svg">
<path d="M26.6667 4.68992C26.6667 8.37876 21.9667 12.9629 19.625 14.885C19.2586 15.1856 18.803 15.3494 18.3333 15.3494C17.8637 15.3494 17.4081 15.1856 17.0417 14.885C14.7 12.9612 10 8.37876 10 4.68992C9.94743 3.50332 10.3563 2.34372 11.1372 1.4648C11.918 0.585884 13.0073 0.0592098 14.1667 0C15.326 0.0592098 16.4153 0.585884 17.1962 1.4648C17.977 2.34372 18.3859 3.50332 18.3333 4.68992C18.2808 3.50332 18.6896 2.34372 19.4705 1.4648C20.2513 0.585884 21.3406 0.0592098 22.5 0C23.6594 0.0592098 24.7487 0.585884 25.5295 1.4648C26.3104 2.34372 26.7192 3.50332 26.6667 4.68992V4.68992ZM38.8967 21.062L26.0633 35.403C24.5009 37.1463 22.6011 38.5379 20.4847 39.4895C18.3683 40.441 16.0817 40.9317 13.77 40.9302H6.66667C4.89856 40.9302 3.20286 40.2115 1.95262 38.9322C0.702379 37.6529 0 35.9178 0 34.1085V25.5814C0 23.7722 0.702379 22.037 1.95262 20.7577C3.20286 19.4784 4.89856 18.7597 6.66667 18.7597H19.645C20.1959 18.7608 20.7396 18.8879 21.2364 19.1316C21.7332 19.3754 22.1704 19.7297 22.5161 20.1686C22.8618 20.6076 23.1073 21.12 23.2345 21.6685C23.3618 22.217 23.3677 22.7877 23.2517 23.3388C23.0712 24.1097 22.6648 24.8057 22.0869 25.3336C21.509 25.8616 20.7873 26.1962 20.0183 26.2926L13.08 27.2868C12.6427 27.351 12.2482 27.5902 11.9832 27.9519C11.7182 28.3136 11.6043 28.7681 11.6667 29.2157C11.729 29.6634 11.9626 30.0676 12.3161 30.3391C12.6696 30.6106 13.1141 30.7273 13.5517 30.6636L20.6383 29.6403C22.3075 29.3888 23.8333 28.5336 24.9392 27.2299C26.0451 25.9262 26.658 24.2601 26.6667 22.5338C26.6585 22.1688 26.6223 21.805 26.5583 21.4457L32.4617 15.0726C33.2401 14.21 34.3205 13.6977 35.4669 13.6476C36.6132 13.5974 37.7324 14.0134 38.58 14.8048C39.4233 15.5956 39.9291 16.6939 39.9883 17.8628C40.0476 19.0317 39.6555 20.1776 38.8967 21.0535V21.062Z" fill="#78372D"/>
</svg>
