<svg width="32" height="43" viewBox="0 0 32 43" fill="none" xmlns="http://www.w3.org/2000/svg">
<path d="M0.386378 15.3223C0.100233 14.6062 -0.0323337 13.7967 0.0035554 12.9846C0.0394445 12.1725 0.242369 11.39 0.589556 10.7248C1.15694 9.60167 1.91678 8.67976 2.80459 8.03733L12.7656 1.04267C13.7447 0.355796 14.8319 -0.00280762 15.9354 -0.00280762C17.0389 -0.00280762 18.1262 0.355796 19.1053 1.04267L29.0649 8.04271C29.9528 8.68513 30.7126 9.60704 31.28 10.7302C31.6272 11.3953 31.8301 12.1779 31.866 12.9899C31.9019 13.802 31.7693 14.6115 31.4832 15.3276C31.1751 16.1139 30.7131 16.771 30.1474 17.2275C29.5816 17.684 28.934 17.9223 28.2748 17.9166H3.59605C2.93627 17.9221 2.28802 17.6831 1.72202 17.2257C1.15602 16.7682 0.694011 16.1098 0.386378 15.3223V15.3223ZM30.543 39.4166C30.543 38.4662 30.2631 37.5548 29.7651 36.8828C29.267 36.2108 28.5914 35.8333 27.887 35.8333V21.4999H25.2311V35.8333H21.2473V21.4999H18.5913V35.8333H13.2795V21.4999H10.6236V35.8333H6.63973V21.4999H3.98381V35.8333C3.27942 35.8333 2.60388 36.2108 2.1058 36.8828C1.60772 37.5548 1.3279 38.4662 1.3279 39.4166C0.975704 39.4166 0.637933 39.6054 0.388893 39.9414C0.139852 40.2774 -5.72121e-05 40.7331 -5.72121e-05 41.2083C-5.72121e-05 41.6834 0.139852 42.1392 0.388893 42.4752C0.637933 42.8112 0.975704 42.9999 1.3279 42.9999H30.543C30.8952 42.9999 31.2329 42.8112 31.482 42.4752C31.731 42.1392 31.8709 41.6834 31.8709 41.2083C31.8709 40.7331 31.731 40.2774 31.482 39.9414C31.2329 39.6054 30.8952 39.4166 30.543 39.4166Z" fill="#78372D"/>
</svg>
