<svg width="35" height="40" viewBox="0 0 35 40" fill="none" xmlns="http://www.w3.org/2000/svg">
<path d="M33.3333 18.3327C32.949 18.3327 32.5803 18.1571 32.3086 17.8445C32.0368 17.5319 31.8841 17.108 31.8841 16.666C31.881 13.1309 30.6585 9.74153 28.4848 7.24181C26.3111 4.74209 23.3639 3.3362 20.2899 3.33267C19.9055 3.33267 19.5369 3.15707 19.2651 2.84451C18.9933 2.53195 18.8406 2.10803 18.8406 1.666C18.8406 1.22397 18.9933 0.800048 19.2651 0.487487C19.5369 0.174926 19.9055 -0.000668298 20.2899 -0.000668298C24.1323 0.00418436 27.8161 1.76169 30.5331 4.88625C33.2501 8.0108 34.7784 12.2472 34.7826 16.666C34.7826 17.108 34.6299 17.5319 34.3581 17.8445C34.0863 18.1571 33.7177 18.3327 33.3333 18.3327ZM28.9855 16.666C28.9855 14.0138 28.0694 11.4703 26.4386 9.59493C24.8079 7.71957 22.5961 6.666 20.2899 6.666C19.9055 6.666 19.5369 6.84159 19.2651 7.15415C18.9933 7.46671 18.8406 7.89064 18.8406 8.33267C18.8406 8.77469 18.9933 9.19862 19.2651 9.51118C19.5369 9.82374 19.9055 9.99933 20.2899 9.99933C21.8274 9.99933 23.3019 10.7017 24.389 11.952C25.4762 13.2022 26.087 14.8979 26.087 16.666C26.087 17.108 26.2397 17.5319 26.5115 17.8445C26.7832 18.1571 27.1519 18.3327 27.5362 18.3327C27.9206 18.3327 28.2892 18.1571 28.561 17.8445C28.8328 17.5319 28.9855 17.108 28.9855 16.666ZM32.1493 36.9393L33.4681 35.191C34.3076 34.2225 34.7789 32.9109 34.7789 31.5435C34.7789 30.1761 34.3076 28.8645 33.4681 27.896C33.4232 27.8443 29.9362 24.7593 29.9362 24.7593C29.0994 23.8432 27.9877 23.3331 26.8323 23.335C25.6769 23.3368 24.5665 23.8505 23.7319 24.7693L20.9696 27.446C18.7148 26.3728 16.6665 24.798 14.9425 22.8119C13.2184 20.8258 11.8525 18.4676 10.9232 15.8727L13.242 12.706C14.0416 11.7463 14.4889 10.4691 14.4907 9.14C14.4926 7.81088 14.049 6.53205 13.2522 5.56933C13.2522 5.56933 10.5667 1.56433 10.5218 1.51267C9.69487 0.555579 8.57376 0.0110351 7.40063 -0.00331033C6.22751 -0.0176557 5.09658 0.499349 4.25219 1.436L2.58552 3.10267C-7.26086 16.2393 13.942 40.4343 25.742 39.9993C26.9336 40.0073 28.1145 39.7406 29.215 39.215C30.3154 38.6895 31.3132 37.9157 32.1493 36.9393V36.9393Z" fill="#78372D"/>
</svg>
