<svg width="40" height="40" viewBox="0 0 40 40" fill="none" xmlns="http://www.w3.org/2000/svg">
<path d="M39.2687 35.7423L31.5267 27.9972C37.3196 20.2559 35.7401 9.2842 27.9988 3.49133C20.2575 -2.30153 9.28585 -0.722008 3.49298 7.01928C-2.29989 14.7606 -0.72036 25.7322 7.02093 31.5251C13.2394 36.1784 21.7803 36.1784 27.9988 31.5251L35.744 39.2703C36.7173 40.2436 38.2953 40.2436 39.2686 39.2703C40.2419 38.297 40.2419 36.7189 39.2686 35.7457L39.2687 35.7423ZM17.5744 30.0302C10.6943 30.0302 5.11697 24.4529 5.11697 17.5728C5.11697 10.6927 10.6943 5.11532 17.5744 5.11532C24.4545 5.11532 30.0319 10.6927 30.0319 17.5728C30.0245 24.4497 24.4515 30.0229 17.5744 30.0302Z" fill="#78372D"/>
</svg>
