<svg width="40" height="42" viewBox="0 0 40 42" fill="none" xmlns="http://www.w3.org/2000/svg">
<g clip-path="url(#clip0_2311_61)">
<path d="M20.0003 13.5826C21.4021 13.5826 22.5386 12.417 22.5386 10.9792C22.5386 9.54136 21.4021 8.37573 20.0003 8.37573C18.5984 8.37573 17.4619 9.54136 17.4619 10.9792C17.4619 12.417 18.5984 13.5826 20.0003 13.5826Z" fill="#78372D"/>
<path d="M33.3332 0.00109863H6.66652C2.96035 0.0311467 -0.0223086 3.13315 -0.000121143 6.93443V27.7378C-0.0223086 31.5393 2.96011 34.6418 6.66652 34.6728H11.5382L17.7848 40.1429C19.0221 41.3027 20.9128 41.3197 22.1698 40.1823L28.5782 34.6711H33.3332C37.0396 34.6401 40.022 31.5376 39.9998 27.7361V6.93443C40.0221 3.13315 37.0394 0.0311467 33.3332 0.00109863ZM19.9999 5.2011C27.6915 5.40967 27.6899 17.1276 19.9999 17.3379C12.3082 17.1275 12.3099 5.41472 19.9999 5.2011ZM27.0815 29.4165C26.1896 29.6499 25.2821 29.0975 25.0546 28.1827C25.0536 28.1786 25.0525 28.1745 25.0515 28.1703C24.1985 25.3084 21.2448 23.6976 18.4544 24.5725C16.7747 25.0992 15.46 26.4476 14.9465 28.1703C14.7136 29.0842 13.8025 29.6314 12.9115 29.3925C12.0205 29.1537 11.487 28.2192 11.7199 27.3053C13.0086 22.6147 17.7608 19.8837 22.3342 21.2055C25.2166 22.0386 27.4693 24.349 28.2815 27.3053C28.5135 28.2275 27.9782 29.1692 27.0815 29.4165Z" fill="#78372D"/>
</g>
<defs>
<clipPath id="clip0_2311_61">
<rect width="40" height="41.0256" fill="white"/>
</clipPath>
</defs>
</svg>
